# xmcd
#
# Track frame offsets:
#	150
#	15670
#	34936
#	50135
#	59928
#	79966
#	100348
#	119112
#	134154
#	151067
#	169357
#	187353
#	203681
#	221445
#	237587
#	256281
#	267926
#	284518
#	307053
#	324773
#
# Disc length: 4603 seconds
#
# Revision: 0
# Processed by: cddbd v1.5.2PL0 Copyright (c) Steve Scherf et al.
# Submitted via: SynApp - FreeCDDB Version: 2.2
#
DISCID=4411f914
DTITLE=VA  - Songbird CD2
DYEAR=2004
DGENRE=Blues
TTITLE0=Roisin O'Reilly - The Edge of the Moon
TTITLE1=Katie Melua - The Closest Thing To Crazy
TTITLE2=Joni Mitchell - Night Ride Home
TTITLE3=Amy Winehouse - (there is) No Greater Love
TTITLE4=Sia - Don't Bring Me Down
TTITLE5=Liz Fraser (cocteau twins) - Evangeline
TTITLE6=Marianne Faithfull - The Ballad Of Lucy Jordan
TTITLE7=Alison Moyet - The First Time I Ever Saw Your Face
TTITLE8=Joan Baez - The Night They Drove Old Dixie Down
TTITLE9=Shelby Lynne - Bend
TTITLE10=Kim Richey - A Place Called Home
TTITLE11=Shawn Colvin - (looking faw) The Heart Of Saturday Night
TTITLE12=Mary Black - Wonder Child
TTITLE13=Lizz Wright - Eternity
TTITLE14=Jodie Brooke Wilson - At Seventeen
TTITLE15=Nanci Griffith - Once In A Very Blue Moon
TTITLE16=Gretchen Peters - Tomorrow Morning
TTITLE17=Saije Nergaard - Be Still In My Heart
TTITLE18=Natalie Merchant - San Andreas Fault
TTITLE19=Karen Matheson (w. secret garden) - Prayer
EXTD=
EXTT0=
EXTT1=
EXTT2=
EXTT3=
EXTT4=
EXTT5=
EXTT6=
EXTT7=
EXTT8=
EXTT9=
EXTT10=
EXTT11=
EXTT12=
EXTT13=
EXTT14=
EXTT15=
EXTT16=
EXTT17=
EXTT18=
EXTT19=
PLAYORDER=
